<svg version="1.1" id="Layer_1" xmlns="http://www.w3.org/2000/svg" xmlns:xlink="http://www.w3.org/1999/xlink" x="0px" y="0px"
	 width="100%" viewBox="0 0 612 375" enable-background="new 0 0 612 375" xml:space="preserve">
<path fill="#000000" opacity="1.000000" stroke="none"
	d="
M241.242172,270.640472
	C236.174454,258.743469 232.928329,246.874146 232.926468,234.150620
	C232.924530,221.071808 231.561630,207.954559 232.211624,194.924850
	C232.895752,181.210495 232.694061,167.309036 237.873215,154.032501
	C245.671204,134.042725 259.125793,120.179123 278.964874,111.865601
	C296.494720,104.519753 314.791504,102.604294 333.207336,104.286285
	C349.605103,105.783951 365.276611,110.818481 378.413971,121.824661
	C391.606628,132.877151 398.235260,146.934982 399.009949,163.960297
	C399.054535,164.940750 399.138763,165.941071 399.380219,166.887329
	C400.852997,172.660141 397.789703,176.933319 391.868896,176.974533
	C379.709381,177.059204 367.537842,177.309799 355.393097,176.877548
	C348.683075,176.638718 346.608337,175.726288 344.054810,168.100113
	C341.214844,159.618515 335.944763,153.166443 327.599548,150.104599
	C313.477020,144.923065 296.277924,155.170578 293.100952,170.546829
	C291.855347,176.575531 291.207153,182.814392 291.091583,188.972641
	C290.810272,203.959290 290.638000,218.966766 291.134888,233.942215
	C291.436066,243.019058 293.439362,251.904877 300.288666,258.791229
	C315.532562,274.117493 336.233215,269.013000 343.949829,249.033325
	C347.324371,240.296021 347.516418,240.000000 356.456635,240.000000
	C368.450165,240.000000 380.443756,239.975784 392.437195,240.011932
	C397.250977,240.026443 400.261749,242.742737 399.912140,247.426132
	C399.503357,252.902084 398.915375,258.450348 397.571381,263.756042
	C391.609467,287.291656 375.543335,300.957062 353.108612,307.916962
	C342.857605,311.097107 332.311707,313.489929 321.511993,312.919434
	C300.836823,311.827240 280.770081,308.491394 263.230682,296.090302
	C253.832703,289.445526 246.850677,280.955170 241.242172,270.640472
z"/>
<path fill="#000000" opacity="1.000000" stroke="none"
	d="
M121.973061,154.961395
	C117.435699,135.602448 119.541878,117.853386 131.576920,101.980598
	C133.681839,99.204453 136.261292,96.788101 138.536179,94.299019
	C140.490128,103.462753 141.984146,111.549316 143.972824,119.512360
	C146.260406,128.672302 152.874268,134.936005 159.619324,140.875229
	C167.235779,147.581757 175.138977,153.963898 182.958786,160.437210
	C184.774414,161.940216 186.757294,163.241135 188.893417,164.803406
	C189.784485,163.281097 190.634430,162.491974 190.646744,161.690002
	C190.693146,158.667603 192.135727,156.000977 194.903610,156.275375
	C197.294540,156.512390 200.540161,158.382751 201.532410,160.436996
	C203.936981,165.415237 206.112717,170.808380 206.823578,176.238174
	C208.394669,188.238251 208.580948,200.418167 210.112427,212.425217
	C212.280716,229.424805 210.760880,246.195709 205.701569,262.245972
	C198.404602,285.395081 181.909866,300.470123 158.974915,307.773468
	C149.831314,310.685150 139.939774,312.829834 130.432220,312.673737
	C112.894615,312.385803 95.778656,308.713379 81.147346,297.978271
	C69.783890,289.640808 62.389660,278.719543 61.038727,264.362030
	C60.469162,258.308807 60.164524,252.217926 60.052204,246.138397
	C59.958580,241.070877 62.191357,239.010605 67.129265,239.004639
	C78.955673,238.990356 90.782120,238.992065 102.608543,239.003326
	C108.614799,239.009033 111.009529,241.239914 112.037605,247.160828
	C112.936195,252.335968 113.210892,257.531708 117.235176,261.929596
	C125.479675,270.939453 137.920364,266.971710 143.646545,259.624512
	C148.839905,252.961060 150.755508,244.952850 151.030151,236.524979
	C151.201263,231.274094 152.193848,226.001389 151.883926,220.794067
	C151.334915,211.569717 149.155136,202.658142 144.164246,194.672974
	C138.030029,184.858566 131.729614,175.144226 125.796371,165.210236
	C124.021828,162.239151 123.236542,158.677216 121.973061,154.961395
z"/>
<path fill="#000000" opacity="1.000000" stroke="none"
	d="
M480.000000,161.000000
	C480.000000,195.127228 480.000000,228.754456 480.000000,262.754669
	C481.579407,262.841949 483.009338,262.988678 484.439392,262.989807
	C504.092438,263.004944 523.745483,262.993866 543.398499,263.002899
	C551.634827,263.006683 553.998474,265.330719 553.999634,273.364105
	C554.001099,283.024078 554.029114,292.684174 553.988770,302.343964
	C553.965515,307.909393 551.881470,309.987000 546.271667,309.989807
	C507.465240,310.009155 468.658844,310.004913 429.852417,309.993500
	C425.264648,309.992157 422.748566,307.579437 422.032471,302.500977
	C421.871246,301.357452 422.000397,300.172577 422.000397,299.006744
	C421.999969,238.715225 421.999237,178.423691 422.000824,118.132172
	C422.001038,109.010643 424.030945,107.000008 433.211060,107.000000
	C445.535858,107.000000 457.860626,106.999817 470.185425,107.000076
	C477.520752,107.000229 479.976105,109.468964 479.991455,117.030396
	C480.020874,131.520203 480.000000,146.010132 480.000000,161.000000
z"/>
<path fill="#EF4023" opacity="1.000000" stroke="none"
	d="
M177.899490,59.122749
	C179.954727,63.935192 181.336319,69.207581 184.230881,73.446960
	C188.096710,79.108925 193.653519,83.614853 197.531158,89.270599
	C201.610321,95.220268 205.214294,101.683327 207.868866,108.380669
	C212.515335,120.103531 202.546753,132.912155 190.936813,135.931961
	C179.518280,138.901978 169.879333,133.680374 162.766129,122.580551
	C150.413437,103.304764 155.014587,74.851540 170.033936,59.438442
	C170.929001,58.519909 171.548553,57.332912 172.894501,56.363129
	C173.859116,58.486153 174.225525,60.516895 174.678040,63.024796
	C176.104172,61.297371 177.001831,60.210060 177.899490,59.122749
z"/>
<path fill="#EF4023" opacity="1.000000" stroke="none"
	d="
M177.886292,58.903393
	C177.001831,60.210060 176.104172,61.297371 174.678040,63.024796
	C174.225525,60.516895 173.859116,58.486153 173.195007,56.201187
	C172.897308,55.946964 172.964676,55.511879 173.094116,55.108154
	C173.223557,54.704430 173.416138,54.266205 173.416138,54.266205
	C174.095001,54.170200 174.773849,54.074200 175.738434,54.413315
	C176.162384,55.485119 176.300598,56.121799 176.438812,56.758480
	C176.916901,57.400333 177.395004,58.042183 177.886292,58.903393
z"/>
<path fill="#EF4023" opacity="1.000000" stroke="none"
	d="
M176.939713,56.654675
	C176.300598,56.121799 176.162384,55.485119 175.993484,54.364090
	C176.520035,53.627312 177.077286,53.374878 177.634521,53.122444
	C177.569885,54.265251 177.505249,55.408062 176.939713,56.654675
z"/>
<path fill="#EF4023" opacity="1.000000" stroke="none"
	d="
M177.345062,51.381020
	C177.579147,51.398388 177.623734,51.591885 177.668335,51.785378
	C177.497421,51.709301 177.326492,51.633224 177.345062,51.381020
z"/>
<path fill="#EF4023" opacity="1.000000" stroke="none"
	d="
M173.071411,54.889191
	C172.674591,54.880459 172.429916,54.686962 172.185226,54.493469
	C172.450943,54.355183 172.716644,54.216896 173.199249,54.172409
	C173.416138,54.266205 173.223557,54.704430 173.071411,54.889191
z"/>
</svg>
